# xmcd
#
# Track frame offsets: 
#        150
#        16908
#        33399
#        54211
#        72434
#        89151
#        103261
#        118380
#        133471
#        149607
#        167465
#        183465
#
# Disc length: 2667 seconds
#
# Revision: 1
# Processed by: cddbd v1.5.2PL0 Copyright (c) Steve Scherf et al.
# Submitted via: ExactAudioCopy v1.1
#
DISCID=b70a690c
DTITLE=Tourist LeMC - En Route
DYEAR=2015
DGENRE=Rap
TTITLE0=En Route
TTITLE1=Bilan
TTITLE2=Verhalen Van de Wijk
TTITLE3=De Troubadours (Met Flip Kowlier)
TTITLE4=Miljonaire
TTITLE5=Adieu (Met Fit)
TTITLE6=Koning Liefde
TTITLE7=Tot Hiertoe Alles Goe
TTITLE8=Meester Kunstenaar (Met Bart Peeters)
TTITLE9=Chanter
TTITLE10=Horizon (Met Wally)
TTITLE11=Deze Nacht
EXTD=
EXTT0=
EXTT1=
EXTT2=
EXTT3=
EXTT4=
EXTT5=
EXTT6=
EXTT7=
EXTT8=
EXTT9=
EXTT10=
EXTT11=
PLAYORDER=
